HIERARCHY
ROOT teapot2
{
	OFFSET 0.000000 0.000000 0.000000
	CHANNELS 6 Xposition Yposition Zposition Yrotation Xrotation Zrotation
	End Site
	{
		OFFSET 0.000000 0.000000 0.000000
	}
}
MOTION
Frames: 70
Frame Time: 0.008333334
3.063173 3.565605 2.661014 55.067570 2.913462 -1.717255 
3.063805 3.565170 2.661415 55.080150 2.968481 -1.743469 
3.064560 3.565160 2.661758 55.081490 2.992022 -1.751404 
3.065403 3.565221 2.661901 55.090140 2.977643 -1.742737 
3.066285 3.565004 2.661896 55.113830 2.981139 -1.740570 
3.067012 3.564963 2.661960 55.100560 2.962623 -1.737335 
3.067566 3.565304 2.662128 55.118640 2.948274 -1.760742 
3.067659 3.565546 2.662460 55.113470 2.902998 -1.767822 
3.067060 3.565338 2.662316 55.100010 2.986902 -1.773224 
3.065879 3.565358 2.662313 55.090340 2.991168 -1.759674 
3.064768 3.565582 2.661991 55.096740 2.947863 -1.726288 
3.063612 3.565609 2.661776 55.088090 2.898263 -1.713501 
3.062829 3.565710 2.661447 55.072690 2.877988 -1.706177 
3.062362 3.565805 2.661060 55.074910 2.894057 -1.698517 
3.062582 3.565894 2.660815 55.072070 2.890365 -1.719299 
3.062563 3.565954 2.660232 55.060810 2.935062 -1.696716 
3.062973 3.565850 2.660018 55.065580 2.912501 -1.744202 
3.063158 3.565769 2.659667 55.068630 2.934337 -1.749817 
3.063505 3.565765 2.659399 55.083900 2.893593 -1.739655 
3.063514 3.565545 2.659477 55.090780 2.943243 -1.730377 
3.063168 3.565759 2.659576 55.090780 2.950489 -1.722626 
3.062750 3.565940 2.659549 55.078900 2.950909 -1.715485 
3.062019 3.566218 2.659595 55.095310 2.867837 -1.697449 
3.060990 3.566288 2.659567 55.096940 2.882854 -1.707306 
3.060520 3.566393 2.659355 55.083240 2.923399 -1.718353 
3.060088 3.566649 2.659260 55.089660 2.911043 -1.729523 
3.060385 3.566829 2.659235 55.107850 2.850228 -1.727509 
3.060494 3.566702 2.659422 55.116650 2.865633 -1.721100 
3.060591 3.566428 2.659166 55.069850 2.893491 -1.713196 
3.061092 3.566056 2.658868 55.093520 2.909101 -1.725739 
3.061359 3.565929 2.658835 55.074620 2.941295 -1.721924 
3.061682 3.565936 2.658809 55.070380 2.956718 -1.727448 
3.061870 3.566026 2.658487 55.067980 2.966630 -1.752960 
3.061306 3.566112 2.658490 55.066900 2.957115 -1.749359 
3.060828 3.566309 2.658449 55.088660 2.895251 -1.747559 
3.060189 3.566515 2.658581 55.086410 2.863008 -1.749146 
3.060072 3.566362 2.658441 55.081120 2.903951 -1.738220 
3.060437 3.566411 2.658611 55.087060 2.899176 -1.742981 
3.060803 3.566460 2.658782 55.093010 2.894400 -1.747742 
3.061168 3.566510 2.658952 55.098960 2.889626 -1.752502 
3.061466 3.566260 2.659103 55.122200 2.905974 -1.719208 
3.061413 3.566165 2.659215 55.080230 2.925221 -1.711884 
3.061635 3.566095 2.659150 55.089240 2.948371 -1.714539 
3.061338 3.566196 2.658853 55.065580 2.953309 -1.720551 
3.061023 3.566261 2.658849 55.059250 2.940172 -1.722626 
3.061268 3.566270 2.658727 55.110950 2.940039 -1.711273 
3.060901 3.566292 2.658673 55.105450 2.889083 -1.717163 
3.060503 3.566081 2.658571 55.092070 2.924275 -1.715820 
3.060653 3.566185 2.658438 55.090520 2.919208 -1.703003 
3.060950 3.565944 2.658386 55.100050 2.960308 -1.713989 
3.060889 3.566110 2.658447 55.071410 2.972317 -1.710571 
3.061115 3.566112 2.658397 55.068920 2.962024 -1.742279 
3.061197 3.566236 2.658362 55.069290 2.972973 -1.737000 
3.061206 3.566182 2.658543 55.096760 2.946951 -1.735779 
3.060945 3.566193 2.658552 55.065750 2.942219 -1.743256 
3.060666 3.566403 2.658647 55.060240 2.961240 -1.742279 
3.060785 3.566205 2.658668 55.080620 2.939170 -1.749084 
3.060692 3.566289 2.658809 55.072120 2.950382 -1.741638 
3.060862 3.566279 2.658882 55.093760 2.900719 -1.724121 
3.060914 3.566152 2.658830 55.089050 2.913310 -1.717163 
3.061040 3.566056 2.658977 55.108690 2.934890 -1.711456 
3.060836 3.566130 2.658785 55.061590 2.967644 -1.730438 
3.060997 3.566154 2.658559 55.061100 2.951578 -1.740601 
3.061032 3.566198 2.658492 55.061770 2.953279 -1.748627 
3.060970 3.566231 2.658414 55.063290 2.945109 -1.742310 
3.060949 3.566196 2.658319 55.069390 2.963167 -1.745728 
3.060864 3.566101 2.658271 55.069520 2.962613 -1.738770 
3.060790 3.566091 2.658189 55.071330 2.974520 -1.723663 
3.060917 3.566154 2.658269 55.083530 2.972727 -1.729889 
3.060951 3.565980 2.658230 55.086280 2.970515 -1.702850 
